<?xml version="1.0" encoding="UTF-8" standalone="no"?>
<svg
   xmlns:dc="http://purl.org/dc/elements/1.1/"
   xmlns:cc="http://creativecommons.org/ns#"
   xmlns:rdf="http://www.w3.org/1999/02/22-rdf-syntax-ns#"
   xmlns:svg="http://www.w3.org/2000/svg"
   xmlns="http://www.w3.org/2000/svg"
   xmlns:sodipodi="http://sodipodi.sourceforge.net/DTD/sodipodi-0.dtd"
   xmlns:inkscape="http://www.inkscape.org/namespaces/inkscape"
   id="Anchored"
   viewBox="0 0 946.47656 1024"
   version="1.1"
   sodipodi:docname="anchored.svg"
   width="946.47656"
   height="1024"
   inkscape:version="0.92.4 (5da689c313, 2019-01-14)">
  <metadata
     id="metadata9">
    <rdf:RDF>
      <cc:Work
         rdf:about="">
        <dc:format>image/svg+xml</dc:format>
        <dc:type
           rdf:resource="http://purl.org/dc/dcmitype/StillImage" />
        <dc:title></dc:title>
      </cc:Work>
    </rdf:RDF>
  </metadata>
  <defs
     id="defs7" />
  <sodipodi:namedview
     pagecolor="#ffffff"
     bordercolor="#666666"
     borderopacity="1"
     objecttolerance="10"
     gridtolerance="10"
     guidetolerance="10"
     inkscape:pageopacity="0"
     inkscape:pageshadow="2"
     inkscape:window-width="1920"
     inkscape:window-height="1025"
     id="namedview5"
     showgrid="false"
     inkscape:zoom="0.2215122"
     inkscape:cx="1227.7603"
     inkscape:cy="455.82581"
     inkscape:window-x="0"
     inkscape:window-y="27"
     inkscape:window-maximized="1"
     inkscape:current-layer="Anchored" />
  <path
     d="m 452.54957,0 h 34.19 c 14.4,3.6 30.59,7.2 44.99,12.6 111.58,39.59 151.17,181.76 73.79,273.55 -19.8,21.6 -41.39,39.59 -68.39,52.19 -5.4,1.8 -7.2,5.4 -7.2,10.8 v 53.99 h 10.8 c 32.39,0 32.39,-1.8 66.59,0 48.59,1.8 75.59,43.19 52.19,82.78 -14.4,19.8 -34.19,30.59 -57.59,30.59 -30.59,-1.8 -28.79,0 -59.39,0 h -10.8 v 390.52 c 84.58,-14.4 179.96,-37.79 235.75,-158.37 0,0 -48.59,14.4 -71.99,10.8 -23.4,-1.8 -39.59,-19.8 -28.79,-39.59 1.8,-3.6 5.4,-9 9,-12.6 53.99,-48.59 106.18,-98.98 160.17,-147.57 25.2,-21.6 53.99,-12.6 61.19,19.8 16.2,70.19 32.39,140.37 48.59,210.56 5.4,32.39 -16.2,52.19 -48.59,43.19 -10.8,-3.6 -41.39,-53.99 -41.39,-53.99 -46.79,71.99 -138.57,244.75 -385.12,244.75 -201.56,0 -318.54,-109.78 -379.730004,-242.95 0,0 -43.19,52.19 -52.19,53.99 -21.6,5.4 -43.1900004,-14.4 -37.7900004,-37.79 7.2,-39.59 16.2000004,-80.98 25.2000004,-120.58 9,-32.39 16.2,-68.39 23.4,-100.78 5.4,-19.8 19.8,-30.59 37.79,-26.99 7.2,1.8 16.200004,5.4 21.600004,10.8 53.99,48.59 106.18,98.98 160.17,149.37 21.6,19.8 14.4,50.39 -14.4,59.39 -12.6,5.4 -77.38,-16.2 -77.38,-16.2 50.39,82.78 134.97,142.17 232.15,149.37 V 516.51 h -10.8 c -32.39,-1.8 -26.99,0 -59.39,-1.8 -48.59,-1.8 -75.59,-43.19 -50.39,-82.78 10.8,-19.8 32.39,-28.79 53.99,-28.79 h 66.59 v -59.39 c 0,-1.8 -3.6,-3.6 -7.2,-5.4 -55.79,-26.99 -89.98,-71.99 -104.38,-131.37 -19.8,-95.38 50.39,-190.76 145.77,-205.16 3.6,0 5.4,-1.8 9,-1.8 z"
     id="path2"
     inkscape:connector-curvature="0" />
</svg>
