<?xml version="1.0" encoding="utf-8"?>
<!-- Generator: Adobe Illustrator 27.7.0, SVG Export Plug-In . SVG Version: 6.00 Build 0)  -->
<svg version="1.1" id="Calque_1" xmlns="http://www.w3.org/2000/svg" xmlns:xlink="http://www.w3.org/1999/xlink" x="0px" y="0px"
	 viewBox="0 0 566.9 566.9" style="enable-background:new 0 0 566.9 566.9;" xml:space="preserve">
<g>
	<g id="_x3C_Répétition_radiale_x3E__00000031199092679394945500000005482038794208562070_">
		<path d="M255.6,550.3c2.4,5.8,9.1,8.5,14.8,5.7c15.4-7.4,38.3-21.8,63.5-48.5c30.1-32,42.9-54.4,48.1-65.7c2.1-4.7,7.5-7,12.4-5.3
			l62,21.9c5.5,1.9,11.5-1.2,12.9-6.8c4.5-17.2,22.9-58.2,0.2-135.5C447.1,239.3,411,215.7,385,210.1c-7.4-1.6-13.7,5.4-11.5,12.6
			c8.7,28.9,21.3,96-22.2,160.4c-36.9,54.6-87.1,70.7-118.4,75.1c-7,1-11.3,8.3-8.6,14.9L255.6,550.3z"/>
	</g>
	<g id="_x3C_Répétition_radiale_x3E__00000111173207570616767510000002443584835437007272_">
		<path d="M44.8,122c-6.2-0.9-11.9,3.7-12.3,10c-1.2,17-0.3,44.1,10.3,79.2c12.7,42.1,25.6,64.4,32.8,74.5c3,4.2,2.3,10-1.6,13.3
			L24,341.8c-4.4,3.8-4.7,10.5-0.5,14.6c12.7,12.5,38.9,48.9,117.3,68c77.6,18.9,116.1-0.5,134-20.2c5.1-5.6,2.2-14.5-5.1-16.3
			c-29.3-6.9-93.8-29.6-127.8-99.5c-28.9-59.3-17.6-110.8-5.9-140.1c2.6-6.6-1.5-13.9-8.6-14.9L44.8,122z"/>
	</g>
	<g id="_x3C_Répétition_radiale_x3E__00000148652683790461091600000015395610162676518065_">
		<path d="M521.1,153.6c3.9-5,2.7-12.1-2.5-15.7c-14.1-9.6-38-22.3-73.8-30.7c-42.8-10.1-68.6-10-80.9-8.8c-5.1,0.5-9.8-3-10.7-8.1
			l-12.1-64.6c-1.1-5.7-6.8-9.3-12.4-7.8c-17.1,4.7-61.8,9.3-117.5,67.6c-55.2,57.8-57.6,100.8-49.5,126.1
			c2.3,7.2,11.5,9.2,16.7,3.7c20.6-22,72.5-66.4,150.1-60.9c65.8,4.7,104.8,40.1,124.3,65c4.4,5.6,12.8,5.6,17.2,0L521.1,153.6z"/>
	</g>
</g>
<circle cx="273.8" cy="275.3" r="71.1"/>
</svg>
