<?xml version="1.0" encoding="UTF-8" standalone="no"?>
<svg
   xmlns:dc="http://purl.org/dc/elements/1.1/"
   xmlns:cc="http://creativecommons.org/ns#"
   xmlns:rdf="http://www.w3.org/1999/02/22-rdf-syntax-ns#"
   xmlns:svg="http://www.w3.org/2000/svg"
   xmlns="http://www.w3.org/2000/svg"
   xmlns:sodipodi="http://sodipodi.sourceforge.net/DTD/sodipodi-0.dtd"
   xmlns:inkscape="http://www.inkscape.org/namespaces/inkscape"
   id="Fleeting"
   viewBox="0 0 1024 1024"
   version="1.1"
   sodipodi:docname="fleeting.svg"
   width="1024"
   height="1024"
   inkscape:version="0.92.4 (5da689c313, 2019-01-14)">
  <metadata
     id="metadata31">
    <rdf:RDF>
      <cc:Work
         rdf:about="">
        <dc:format>image/svg+xml</dc:format>
        <dc:type
           rdf:resource="http://purl.org/dc/dcmitype/StillImage" />
        <dc:title></dc:title>
      </cc:Work>
    </rdf:RDF>
  </metadata>
  <defs
     id="defs29" />
  <sodipodi:namedview
     pagecolor="#ffffff"
     bordercolor="#666666"
     borderopacity="1"
     objecttolerance="10"
     gridtolerance="10"
     guidetolerance="10"
     inkscape:pageopacity="0"
     inkscape:pageshadow="2"
     inkscape:window-width="1920"
     inkscape:window-height="1025"
     id="namedview27"
     showgrid="false"
     inkscape:zoom="0.4430244"
     inkscape:cx="443.99816"
     inkscape:cy="530.05999"
     inkscape:window-x="0"
     inkscape:window-y="27"
     inkscape:window-maximized="1"
     inkscape:current-layer="Fleeting" />
  <path
     d="m 325.89,239.87 c 6.62,-4.96 14.89,-9.93 21.51,-13.23 l 11.58,-6.62 -90.99,-157.16 -11.58,6.62 c -11.58,4.96 -21.51,13.23 -33.09,19.85 l -9.93,6.62 102.57,150.54 z"
     id="path2"
     inkscape:connector-curvature="0" />
  <path
     d="m 287.84,972.72 11.58,6.62 79.41,-163.77 -11.58,-6.62 c -6.62,-3.31 -14.89,-6.62 -21.51,-11.58 l -11.58,-4.96 -90.99,155.5 11.58,6.62 c 11.58,6.62 21.51,13.23 33.09,18.2 z"
     id="path4"
     inkscape:connector-curvature="0" />
  <path
     d="m 87.67,799.02 6.62,11.58 152.19,-102.57 -8.27,-9.93 c -3.31,-6.62 -8.27,-14.89 -13.23,-21.51 L 218.36,665.01 61.2,756 l 6.62,11.58 c 6.62,11.58 13.23,21.51 19.85,31.43 z"
     id="path6"
     inkscape:connector-curvature="0" />
  <path
     d="m 797.36,347.4 6.62,11.58 157.16,-90.99 -6.62,-11.58 c -4.96,-11.58 -13.23,-21.51 -19.85,-31.43 l -6.62,-11.58 -150.54,102.57 6.62,11.58 c 4.96,6.62 9.93,13.23 13.23,19.85 z"
     id="path8"
     inkscape:connector-curvature="0" />
  <path
     d="M 524.4,181.97 V 0 h -13.23 c -11.58,0 -24.81,1.65 -36.39,1.65 l -13.23,1.65 13.23,180.32 h 13.23 c 6.62,0 14.89,-1.65 24.81,-1.65 z"
     id="path10"
     inkscape:connector-curvature="0" />
  <path
     d="m 1024,512.83 c 0,-13.23 -1.65,-26.47 -1.65,-38.05 l -1.65,-13.23 -180.32,13.23 v 13.23 c 1.65,8.27 1.65,16.54 1.65,24.81 v 14.89 L 1024,524.4 v -11.58 z"
     id="path12"
     inkscape:connector-curvature="0" />
  <path
     d="m 511.17,1024 h 36.39 l 13.23,-1.65 -13.23,-181.97 -11.58,1.65 h -38.05 l 1.65,181.97 h 11.58 z"
     id="path14"
     inkscape:connector-curvature="0" />
  <path
     d="m 183.62,549.22 -1.65,-13.23 V 497.94 L 0,499.59 v 13.23 c 0,11.58 0,24.81 1.65,36.39 v 13.23 l 181.97,-13.23 z"
     id="path16"
     inkscape:connector-curvature="0" />
  <path
     d="m 69.48,256.42 c -6.62,9.93 -13.23,21.51 -18.2,33.09 l -6.62,11.58 163.77,79.41 6.62,-11.58 c 3.31,-8.27 6.62,-14.89 11.58,-21.51 l 6.62,-11.58 -158.81,-90.99 z"
     id="path18"
     inkscape:connector-curvature="0" />
  <path
     d="m 734.5,51.29 -11.58,-4.96 -79.41,163.77 11.58,4.96 c 6.62,3.31 14.89,8.27 21.51,11.58 l 11.58,6.62 L 779.17,76.1 767.59,69.48 C 757.66,62.86 746.08,56.25 734.5,51.28 Z"
     id="path20"
     inkscape:connector-curvature="0" />
  <path
     d="m 765.93,956.18 c 11.58,-6.62 23.16,-13.23 33.09,-19.85 l 9.93,-6.62 -102.57,-150.54 -9.93,6.62 c -6.62,4.96 -13.23,8.27 -19.85,13.23 l -11.58,6.62 89.33,157.16 z"
     id="path22"
     inkscape:connector-curvature="0" />
  <path
     d="m 954.52,770.9 c 6.62,-11.58 11.58,-23.16 18.2,-34.74 l 4.96,-11.58 -163.77,-79.41 -4.96,11.58 c -3.31,8.27 -8.27,14.89 -11.58,21.51 l -6.62,11.58 157.16,90.99 6.62,-9.93 z"
     id="path24"
     inkscape:connector-curvature="0" />
</svg>
