<?xml version="1.0" encoding="utf-8"?>
<!-- Generator: Adobe Illustrator 27.3.1, SVG Export Plug-In . SVG Version: 6.00 Build 0)  -->
<svg version="1.1" id="Calque_1" xmlns="http://www.w3.org/2000/svg" xmlns:xlink="http://www.w3.org/1999/xlink" x="0px" y="0px"
	 viewBox="0 0 50.5 28.5" style="enable-background:new 0 0 50.5 28.5;" xml:space="preserve">
<style type="text/css">
	.st0{fill:#1D1D1B;}
</style>
<g>
	<path class="st0" d="M27.5,3.3V10l-4.1,2.7l4.1-0.5v0l7.7-1c0.5-0.1,0.8-0.6,0.6-1.1l-1.1-2.3l3.1-0.8l9.8,7.7l-9.7,7.6L35,21.5
		l0.9-2.2c0.2-0.5-0.1-1-0.7-1.1l-7.8-0.9v0l-4.1-0.5l4.1,2.7v6.8h15.7c4.1,0,7.4-3.3,7.4-7.4V3.3H27.5z"/>
	<path class="st0" d="M12.2,2.6c-9.3,0-8.9,7.1-8.8,8.2c0,0.1,0,0.2-0.1,0.3l-3.3,4.6c-0.2,0.2,0,0.6,0.2,0.6l2.3,0.4
		c0.2,0,0.3,0.2,0.3,0.4c0,1,0.2,4.4,1.2,6.2c0.1,0.2,0.3,0.2,0.5,0.2l3.7-1.1c0.3-0.1,0.6,0.2,0.5,0.5l-0.8,3
		C7.8,26,8,26.2,8.2,26.2h11.1c0.2,0,0.4-0.2,0.4-0.4V21c0-1.9,2.7-4.2,2.7-9.4C22.3,6.3,22.2,2.6,12.2,2.6z M17,10.5
		c-1,1.6-1.6,4.2-1.6,4.2c0-1.1-0.6-2.8-1.4-4C12.4,9.8,10,9.4,10,9.4c1.1,0,2.8-0.6,4-1.2C14.9,6.6,15.4,4,15.4,4
		c0,1.2,0.7,2.9,1.5,4.1c1.6,0.8,3.9,1.2,3.9,1.2C19.8,9.4,18.2,9.9,17,10.5z"/>
	<path class="st0" d="M26.2,3.2c0,0-1.4-0.3-2.3-0.7c-0.5-0.7-0.9-1.8-0.9-2.5c0,0-0.3,1.5-0.9,2.5c-0.7,0.4-1.7,0.7-2.4,0.7
		c0,0,1.5,0.3,2.4,0.8c0.4,0.7,0.8,1.7,0.8,2.4c0,0,0.4-1.6,1-2.5C24.6,3.5,25.5,3.2,26.2,3.2z"/>
</g>
</svg>
