<?xml version="1.0" encoding="utf-8"?>
<!-- Generator: Adobe Illustrator 27.2.0, SVG Export Plug-In . SVG Version: 6.00 Build 0)  -->
<svg version="1.1" id="Calque_1" xmlns="http://www.w3.org/2000/svg" xmlns:xlink="http://www.w3.org/1999/xlink" x="0px" y="0px"
	 viewBox="0 0 50.5 28.5" style="enable-background:new 0 0 50.5 28.5;" xml:space="preserve">
<path d="M26.4,2.4v7l-4.3,2.8l4.3-0.6v0l8-1c0.6-0.1,0.9-0.7,0.6-1.2L34,7.1l3.2-0.8l10.2,8l-10.1,7.9l-3-0.8l0.9-2.3
	c0.2-0.5-0.1-1-0.7-1.1l-8.1-1v0l-4.3-0.6l4.3,2.8v7.1h16.3c4.2,0,7.7-3.4,7.7-7.7V2.4H26.4z"/>
<path d="M26.5,2.5v6.9l-4.3,2.8l4.3-0.6v0l8-1c0.6-0.1,0.9-0.7,0.6-1.2L34,7.2l3.2-0.8l10.2,8l-10.1,7.9l-3-0.8l0.9-2.3
	c0.2-0.5-0.1-1-0.7-1.1l-8.1-1v0l-4.3-0.6l4.3,2.8v7.1h16.3c4.2,0,7.6-3.4,7.6-7.6V2.5H26.5z"/>
<path d="M21.6,3.3L17.6,12l1.7-10.8L16,0.5L13.8,11L13.2,0L9.6,0.5l0.5,10.4L7,1.7l-3,1l1.9,10.2L6,15.7c1.2-0.2,5-0.4,8.1,5.4
	c0,0-3.8-6.2-8-4.4c-1.7-1.5-3.8-5.3-3.8-5.3L0,13.3c0,4.6,5.2,12.3,7.2,12.3c0,0,3.7,1,7.2,1s6.5-3.7,6.5-7.9
	c0-4.3,2.7-13.7,2.7-13.7L21.6,3.3z"/>
</svg>
