<?xml version="1.0" standalone="no"?>
<!DOCTYPE svg PUBLIC "-//W3C//DTD SVG 1.1//EN" "http://www.w3.org/Graphics/SVG/1.1/DTD/svg11.dtd" >
<svg xmlns="http://www.w3.org/2000/svg">
<metadata>Generated by IcoMoon</metadata>
<defs>
<font id="icomoon" horiz-adv-x="1024">
<font-face units-per-em="1024" ascent="960" descent="-64" />
<missing-glyph horiz-adv-x="1024" />
<glyph unicode="&#x20;" horiz-adv-x="512" d="" />
<glyph unicode="&#xe900;" glyph-name="anchored" d="M632.52 746.722c0-66.566-53.963-120.529-120.529-120.529s-120.529 53.963-120.529 120.529c0 66.566 53.963 120.529 120.529 120.529s120.529-53.963 120.529-120.529zM464.758 714.155h94.465v-599.376h-94.465v599.376zM634.164 460.075h-244.327c-26.064 0-48.858 22.794-48.858 48.858v6.52c0 26.064 22.794 48.858 48.858 48.858h244.327c26.064 0 48.858-22.794 48.858-48.858v-6.52c0-26.064-22.813-48.858-48.858-48.858zM840.524 352.803l-128.332-45.571c-10.043-3.558-11.144-17.304-1.824-22.451l23.896-13.149c6.231-3.432 8.272-11.415 4.479-17.448-25.269-40.008-59.714-71.255-99.053-92.478-0.722-0.397-1.463-0.777-2.186-1.174-1.337-0.704-2.691-1.409-4.028-2.095-0.433-0.217-0.885-0.433-1.319-0.668-1.644-0.831-3.305-1.644-4.967-2.42-0.072-0.036-0.126-0.054-0.199-0.090-19.2-9.085-39.43-15.877-60.183-20.248-0.090-0.018-0.163-0.036-0.253-0.054-0.379-0.072-0.741-0.144-1.12-0.217-106.838-21.602-219.745 23.95-280.181 119.644-3.793 6.015-1.77 13.998 4.479 17.448l23.896 13.149c9.32 5.13 8.218 18.875-1.824 22.451l-128.332 45.571c-6.972 2.475-14.54-1.698-16.166-8.905l-30.128-132.793c-2.348-10.386 8.67-18.676 17.99-13.547l24.673 13.583c5.816 3.215 13.095 1.192 16.545-4.497 34.571-57.221 82.616-101.853 137.778-132.125l-0.181-0.325c73.531-40.477 154.974-53.139 232.19-41.561 1.21 0.181 2.42 0.343 3.631 0.542 0.506 0.090 1.011 0.181 1.535 0.253 36.413 5.888 72.484 17.394 106.982 34.824 0.271 0.126 0.524 0.271 0.795 0.397 2.023 1.030 4.028 2.077 6.033 3.143 0.903 0.47 1.788 0.957 2.673 1.427 0.722 0.397 1.445 0.759 2.167 1.156l-0.018 0.036c55.108 30.272 103.081 74.868 137.616 132.035 3.432 5.69 10.711 7.694 16.545 4.497l24.673-13.583c9.32-5.13 20.338 3.161 17.99 13.547l-30.128 132.793c-1.626 7.225-9.176 11.379-16.148 8.905z" />
<glyph unicode="&#xe901;" d="M57.293 80.299c0 0 59.479 47.684 102.629 149.699s24.239 156.888 88.342 183.096c50.123 20.501 88.938 0 88.938 0s160.88 121.089 227.602 212.646 142.583 258.271 243.298 269.452 120.33-57.546 120.33-57.546 28.773-113.792-66.704-177.895-171.356-86.337-226.283-136.026-210.587-219.745-210.587-219.745 19.254-88.27-40.55-153.041-327.016-70.641-327.016-70.641z" />
<glyph unicode="&#xe902;" d="M167.166 136.545c0 0 58.811 68.365 65.403 130.806 3.919 37.172 15.696 77.18 45.788 82.671 26.1 4.768 53.627 5.22 70.641-15.967 23.427-29.17 45.083-79.365 10.458-126.887-66.704-91.557-192.29-70.623-192.29-70.623z" />
<glyph unicode="&#xe903;" d="M435.317 435.709l19.616-22.614 49.707 39.99-24.854 35.275z" />
<glyph unicode="&#xe904;" d="M509.878 510.649l21.53-27.473c0 0 55.65 69.323 102.738 92.876s119.030 64.085 156.96 95.495 52.326 71.942 26.154 108.572-82.4-7.857-98.096-28.773-74.561-119.030-111.191-145.184c-36.612-26.19-98.096-95.513-98.096-95.513z" />
<glyph unicode="&#xe905;" d="M57.293 80.299c0 0 81.099-86.337 261.613-80.449s130.861 86.988 329.617 114.406c146.502 20.212 226.301 9.049 291.614 12.373 11.289 0.578 12.102 16.924 0.939 18.64-102.882 15.714-255.472 36.901-308.249 33.126-82.4-5.888-184.433-64.753-300.194-68.672s-275.34-29.423-275.34-29.423z" />
<glyph unicode="&#xe906;" glyph-name="charge" d="M461.694-34.015c4.335-10.477 16.437-15.354 26.733-10.296 27.817 13.367 69.182 39.378 114.701 87.606 54.37 57.802 77.491 98.264 86.884 118.675 3.793 8.49 13.547 12.644 22.398 9.573l111.992-39.558c9.935-3.432 20.773 2.168 23.301 12.283 8.128 31.069 41.365 105.128 0.361 244.756-40.461 138.725-105.669 181.354-152.634 191.469-13.367 2.89-24.747-9.754-20.773-22.76 15.715-52.203 38.475-173.406-40.1-289.733-66.653-98.625-157.33-127.706-213.868-135.654-12.644-1.806-20.411-14.992-15.534-26.914l56.538-139.448zM80.923 739.63c-11.199 1.626-21.495-6.683-22.218-18.063-2.168-30.707-0.542-79.658 18.605-143.060 22.94-76.046 46.242-116.327 59.247-134.57 5.419-7.587 4.155-18.063-2.89-24.024l-90.316-77.31c-7.948-6.864-8.49-18.966-0.903-26.372 22.94-22.579 70.266-88.329 211.881-122.829 140.17-34.139 209.713 0.903 242.046 36.488 9.212 10.115 3.974 26.192-9.212 29.443-52.925 12.464-169.432 53.467-230.847 179.728-52.203 107.114-31.791 200.14-10.657 253.065 4.696 11.922-2.709 25.108-15.534 26.914l-149.202 20.592zM941.271 682.55c7.045 9.032 4.877 21.856-4.516 28.359-25.469 17.341-68.64 40.281-133.306 55.454-77.31 18.244-123.913 18.063-146.131 15.896-9.212-0.903-17.702 5.419-19.328 14.631l-21.856 116.688c-1.987 10.296-12.283 16.799-22.398 14.089-30.888-8.49-111.63-16.799-212.242-122.107-99.709-104.405-104.044-182.077-89.413-227.776 4.155-13.005 20.773-16.618 30.165-6.683 37.21 39.739 130.958 119.939 271.128 110.005 118.856-8.49 189.302-72.433 224.525-117.41 7.948-10.115 23.121-10.115 31.069 0l92.303 118.856zM622.998 462.721c0-70.929-57.5-128.429-128.429-128.429s-128.429 57.5-128.429 128.429c0 70.929 57.5 128.429 128.429 128.429s128.429-57.5 128.429-128.429z" />
<glyph unicode="&#xe907;" d="M703.233 58.48h-382.467c-38.256 0-73.025 34.77-73.025 73.007v657.157c0 38.238 34.77 73.007 73.025 73.007h382.467c38.238 0 73.007-34.77 73.007-73.007v-657.157c0-45.192-27.816-73.007-73.007-73.007z" />
<glyph unicode="&#xe908;" d="M466.799 465.276h73.025l-86.933-198.196h-97.355l111.263 198.196zM362.49 639.125h97.355l79.979-187.757h-69.539l-107.795 187.757zM484.175 465.276h76.493l104.309-198.196h-93.887l-86.915 198.196zM564.155 639.125h93.887l-104.327-187.757h-69.539l79.979 187.757z" />
<glyph unicode="&#xe909;" glyph-name="fleeting" d="M385.556 208.017l-18.64 10.819c-6.195 3.594-14.107 1.969-18.46-3.793l-76.421-101.022c-5.184-6.846-3.251-16.671 4.118-20.934l43.548-25.269c7.297-4.227 16.671-1.156 20.139 6.611l51.513 115.472c2.962 6.665 0.47 14.468-5.798 18.116zM239.685 438.237l0.036 21.548c0.018 7.153-5.346 13.203-12.517 14.089l-125.695 15.66c-8.525 1.066-16.057-5.509-16.075-14.034l-0.108-50.339c-0.018-8.435 7.333-15.010 15.786-14.125l125.749 13.131c7.279 0.759 12.806 6.828 12.824 14.070zM366.121 679.693l18.676 10.729c6.213 3.558 8.76 11.235 5.942 17.882l-49.292 116.682c-3.342 7.911-12.806 11.144-20.194 6.9l-43.638-25.088c-7.315-4.19-9.338-13.854-4.335-20.735l74.254-102.34c4.299-5.906 12.3-7.64 18.586-4.028zM638.444 690.909l18.64-10.819c6.195-3.594 14.107-1.969 18.46 3.793l76.421 101.022c5.184 6.846 3.251 16.671-4.118 20.934l-43.548 25.251c-7.297 4.227-16.671 1.156-20.139-6.611l-51.513-115.472c-2.962-6.647-0.47-14.468 5.798-18.098zM784.315 460.689l-0.036-21.548c-0.018-7.153 5.346-13.203 12.517-14.089l125.695-15.66c8.525-1.066 16.057 5.509 16.075 14.034l0.108 50.339c0.018 8.435-7.333 15.010-15.786 14.125l-125.749-13.131c-7.279-0.759-12.806-6.828-12.824-14.070zM657.879 219.233l-18.676-10.729c-6.213-3.558-8.76-11.235-5.942-17.882l49.292-116.682c3.342-7.911 12.806-11.144 20.194-6.9l43.638 25.088c7.315 4.19 9.338 13.854 4.335 20.735l-74.254 102.34c-4.281 5.888-12.3 7.64-18.586 4.028zM290.494 300.874l-20.248 34.878c-6.719 11.578-18.965 17.538-28.52 13.89l-167.906-64.085c-11.379-4.353-14.378-20.356-6.376-34.138l47.287-81.497c7.911-13.637 23.083-19.056 32.548-11.614l140.867 110.721c8.146 6.376 9.158 20.121 2.348 31.844zM272.577 567.003l20.085 34.968c6.665 11.614 5.708 25.197-2.222 31.645l-139.476 113.376c-9.465 7.694-24.817 2.276-32.747-11.56l-46.926-81.695c-7.857-13.673-4.967-29.514 6.213-33.993l166.317-66.631c9.591-3.865 22 2.131 28.755 13.89zM494.073 715.582l40.333 0.090c13.402 0.036 24.673 7.64 26.299 17.755l28.448 177.479c1.933 12.029-10.44 22.614-26.389 22.578l-94.23-0.217c-15.768-0.036-28.051-10.458-26.335-22.379l25.45-177.353c1.481-10.241 12.878-17.99 26.425-17.954zM733.506 598.034l20.248-34.878c6.719-11.578 18.965-17.538 28.52-13.89l167.924 64.103c11.379 4.353 14.378 20.356 6.376 34.138l-47.287 81.497c-7.911 13.637-23.083 19.056-32.548 11.614l-140.867-110.721c-8.164-6.394-9.176-20.139-2.366-31.862zM751.423 331.923l-20.085-34.968c-6.665-11.614-5.708-25.197 2.222-31.645l139.476-113.376c9.465-7.694 24.817-2.276 32.747 11.56l46.926 81.695c7.857 13.673 4.967 29.514-6.213 33.993l-166.317 66.631c-9.591 3.865-22-2.131-28.755-13.89zM529.927 183.344l-40.333-0.090c-13.402-0.036-24.673-7.64-26.299-17.755l-28.448-177.479c-1.933-12.029 10.44-22.614 26.389-22.578l94.212 0.217c15.768 0.036 28.051 10.458 26.335 22.379l-25.45 177.353c-1.463 10.241-12.86 17.99-26.407 17.954z" />
<glyph unicode="&#xe90a;" glyph-name="forest" d="M829.46 540.574c-195.985-1.084-292.984-169.613-321.343-227.776-3.071-7.225-13.728-5.238-13.728 3.251-0.903 20.773 17.521 80.020 25.469 100.792 26.372 56.176 38.113 64.485 81.284 118.494 56.718 73.878 68.459 123.733 32.333 211.158-22.579 53.106-47.867 85.258-103.682 155.885-20.592 25.108-29.443 31.249-49.132 3.251-63.582-104.044-135.112-243.491-128.248-371.378 0-9.393 12.644-71.711 12.644-71.711-50.938 35.404-69.543 58.344-171.6 73.878-24.566 3.071-126.442 12.464-115.604-30.165 47.145-175.754 95.193-257.942 238.253-318.273 37.21-15.534 93.025-24.024 127.345-24.927 9.754 0 17.521-9.573 15.715-19.869-12.825-91.58-15.715-143.602-16.618-151.73-1.084-14.451 48.951-31.249 56.718-31.249 14.631 0 56.718 20.773 57.802 30.165 0 14.451-8.851 80.2-18.605 153.898-0.903 11.56 5.961 21.856 15.715 24.024 15.534 3.071 40.1 8.309 61.595 11.38 170.516 22.94 263.541 119.578 325.317 320.44 13.909 40.461-87.064 40.461-111.63 40.461z" />
<glyph unicode="&#xe90b;" glyph-name="hand" d="M753.414 550.689c-6.503-42.81-21.315-140.351-20.411-140.351 0.903 0.903 19.508-8.309 20.411-5.6 22.218 59.428 44.616 117.049 67.917 175.574 8.309 25.108 21.315 54.912 47.325 51.119 32.514-6.503 52.925-40.823 42.81-74.42l-31.791-102.96c-27.817-91.038-56.718-180.27-84.536-270.405-14.812-48.409-41.907-93.025-80.923-125.539-42.81-35.404-91.941-54.912-147.757-57.621-32.514-0.903-65.027 2.709-96.638 12.102-49.312 12.102-91.941 39.016-132.042 69.724-36.307 28.901-69.724 61.415-102.237 95.735-43.713 43.713-86.522 89.232-129.152 133.848-13.909 15.715-22.218 37.21-19.508 57.621 0 0.903 0 1.806 0.903 1.806 5.6 35.404 52.925 40.823 85.439 30.707 28.901-9.212 61.415-16.799 120.842-66.834 4.696-4.696 27.817-23.301 33.417-26.011 33.417-17.702 37.21 9.212 36.307 43.713 0 14.812 0 30.707-1.806 45.519-4.696 37.21-7.587 72.433-12.102 109.643l-13.909 117.049c-3.974 33.417-8.309 66.834-11.199 100.431-0.903 12.102-2.709 22.218-1.806 33.417 1.806 27.817 19.508 49.312 46.422 50.216 34.32 0 42.81-37.21 52.925-65.027 10.296-34.32 52.925-242.588 58.525-269.502l19.508 1.806c0.903 32.514 2.709 66.834 4.696 99.528l3.793 64.124c1.806 36.307 2.709 70.627 4.696 104.947 1.806 38.113 2.709 76.226 6.503 112.533 0.903 21.315 18.605 38.113 39.016 38.113 26.011 0.903 50.216-17.702 54.912-42.81 1.806-13.005 0.903-25.108 0.903-35.404v-262.999c0-21.315-2.709-53.828-2.709-75.323l20.411-5.6 29.804 158.053c7.225 38.113 14.812 78.033 22.218 116.146 4.696 26.914 14.812 60.331 39.016 60.331 35.404 0.903 61.415-31.611 56.718-64.124-3.793-26.914-7.406-52.022-10.296-78.033-6.503-38.113-11.199-76.226-16.618-115.243z" />
<glyph unicode="&#xe90d;" d="M717.557 292.548c-20.32 16.942-44.036 30.489-60.978 54.205 74.525-13.547 128.711 13.547 145.654 71.129 16.942 54.205-13.547 111.787-64.356 132.107s-115.165 0-142.276-64.356c-20.32 40.64-40.64 81.298-64.356 121.938 13.547 16.942 33.867 30.489 57.582 44.036 115.165 60.978 260.818 16.942 318.418-101.618 57.582-121.938 6.773-264.214-115.165-315.023-115.165-50.809-250.667 0-301.476 115.165-23.716 50.809-47.431 98.24-67.751 149.049-23.716 50.809-67.751 91.449-121.938 105.014 23.716-16.942 47.431-30.489 64.356-54.205-74.525 13.547-125.334-13.547-145.654-74.525-16.942-54.205 13.547-111.787 64.356-132.107s118.56 0 145.654 67.751c10.169-23.716 20.32-44.036 30.489-64.356s20.32-40.64 33.867-60.978c-30.489-33.867-67.751-54.205-115.165-67.751-88.071-20.32-182.916 13.547-240.498 88.071-54.205 74.525-60.978 176.143-13.547 254.045 50.809 81.298 121.938 121.938 216.782 115.165 88.071-6.773 152.427-54.205 193.085-132.107 23.716-47.431 44.036-91.467 64.356-138.88 23.716-50.809 57.582-91.467 111.787-111.787 0 3.414 3.378 0.018 6.773 0.018z" />
<glyph unicode="&#xe90e;" glyph-name="mountain" d="M969.088 179.13c-14.089 52.564-72.433 152.272-95.012 201.585-38.836 84.716-151.189 342.116-227.776 470.726-13.909 27.817-63.582 7.587-75.504-20.231-35.584-78.394-108.018-266.070-105.85-270.405 55.273-99.709 119.759-236.989 119.759-257.4-1.987-18.244-72.253 17.16-94.832 55.635-47.506 77.13-111.269 117.952-188.941 211.158-20.411 22.579-59.428 9.754-76.768-22.398-73.336-142.699-132.764-292.804-186.773-445.257-10.838-31.069 41.003-35.404 67.917-42.81 15.173-4.335 422.316-46.061 427.555-46.061 105.669 0 206.101 32.152 312.131 32.152 58.344 0 132.764-32.152 144.686 41.907 6.503 35.404-8.67 55.996-20.592 91.4z" />
<glyph unicode="&#xe90f;" glyph-name="ocean" d="M322.788 401.668c7.767 41.365 16.799 92.845 116.327 276.366 17.883-88.509 29.082-175.754 0-265.348-16.799-43.713-76.046-82.91-76.046-82.91-36.849 18.063-44.616 44.977-40.281 71.891zM496.375-1.321c256.316-29.082 343.561 139.989 343.561 255.232-1.084 115.243-53.648 227.234-107.476 326.762-57.080 101.876-125.358 198.153-195.805 289.914-17.883 24.566-45.88 38.113-73.878 24.566-5.6-2.168-10.115-4.516-13.367-7.767-12.283-4.516-22.398-12.283-29.082-24.566-6.683-9.032-155.524-273.115-192.553-385.106-10.115-27.998-25.83-95.193-25.83-124.274-5.6-120.842 29.082-324.414 294.429-354.76z" />
<glyph unicode="&#xe910;" glyph-name="permanent" d="M703.233 58.48h-382.467c-38.256 0-73.025 34.77-73.025 73.007v657.157c0 38.238 34.77 73.007 73.025 73.007h382.467c38.238 0 73.007-34.77 73.007-73.007v-657.157c0-45.192-27.816-73.007-73.007-73.007z" />
<glyph unicode="&#xe911;" glyph-name="played" d="M909.48 427.86c10.657 7.045 10.657 24.927 0 31.972l-374.268 317.55c-14.27 10.657-35.584 0-35.584-14.27l36.126-168.529c0-10.657-10.657-21.315-21.315-21.315l-277.089-17.702c-71.169-7.045-124.455-13.909-124.455-110.005s53.286-102.779 124.455-110.005l277.089-17.702c10.657 0 21.315-10.657 21.315-21.315v0l-36.126-168.529c0-14.27 21.315-24.927 35.584-14.27l374.268 314.118z" />
<glyph unicode="&#xe912;" glyph-name="btg" horiz-adv-x="1130" d="M879.618 621.258v46.646q62.195-24.434 124.39-49.978 63.306-25.544 125.501-51.089l-564.2-630.837h-1.111v1.111h-1.111q-141.050 157.709-280.989 315.419-141.050 156.599-282.1 314.308l124.39 51.089q63.306 24.434 125.501 49.978v-46.646q-28.876-12.217-58.863-25.544-28.876-12.217-57.753-25.544h1.111v-1.111q35.54-28.876 69.97-58.863 35.54-28.876 69.97-57.753t69.97-57.753q34.43-28.876 68.859-58.863 37.761-29.987 74.412-61.085 37.761-31.098 74.412-62.195v-1.111h1.111q1.111-1.111 2.221-1.111l1.111 1.111q4.443 3.332 7.774 6.664 4.443 3.332 7.774 6.664l133.275 111.063q36.651 29.987 73.302 61.085 36.651 29.987 73.302 61.085 33.319 27.766 65.527 54.421l66.638 55.531q0 1.111 1.111 1.111 1.111 1.111 2.221 1.111-29.987 13.328-58.863 25.544-29.987 13.328-58.863 25.544zM513.111 333.605q-51.089 43.315-103.289 85.518-51.089 43.315-103.289 86.629 0 1.111-1.111 1.111v394.273q55.531 14.438 109.952 28.876 55.531 15.549 111.063 29.987v-637.501q-3.332 3.332-6.664 5.553t-6.664 5.553zM824.087 901.137v-390.941q0-2.221-1.111-3.332l-1.111-1.111q-51.089-43.315-102.178-85.518-52.2-43.315-103.289-86.629-3.332-2.221-6.664-5.553l-6.664-4.443v636.39q55.531-14.438 109.952-29.987z" />
<glyph unicode="&#xe913;" glyph-name="card" horiz-adv-x="673" d="M93.293-64q-36.651 0-65.527 28.876-27.766 27.766-27.766 64.416v837.414q0 36.651 27.766 65.527 28.876 27.766 65.527 27.766h487.566q35.54 0 64.416-27.766 27.766-28.876 27.766-65.527v-837.414q0-43.315-24.434-67.748-25.544-25.544-67.748-25.544h-244.338z" />
<glyph unicode="&#xe914;" d="M874.065 85.935q-69.97-68.859-166.594-108.842-97.735-41.093-195.471-41.093t-195.471 41.093q-97.735 39.983-166.594 108.842-68.859 69.97-109.952 166.594-39.983 97.735-39.983 195.471t39.983 195.471q41.093 97.735 109.952 166.594t166.594 109.952q97.735 39.983 195.471 39.983t195.471-39.983q96.625-41.093 166.594-109.952 68.859-68.859 108.842-166.594 41.093-97.735 41.093-195.471t-41.093-195.471q-39.983-96.625-108.842-166.594z" />
<glyph unicode="&#xe915;" d="M464.243 661.241l-3.332-426.482h-98.846q-12.217 0-18.881-2.221-7.774-3.332-11.106-5.553-5.553-9.996-6.664-31.098 0-22.213 3.332-63.306h353.18q16.659 0 27.766 2.221 12.217 3.332 15.549 6.664t5.553 8.885 2.221 12.217v24.434q-1.111 18.881-3.332 47.757h-132.165q1.111 165.484 3.332 495.341 0 25.544-13.328 37.761-13.328 13.328-42.204 13.328-15.549 0-44.425-6.664t-69.97-18.881q-38.872-13.328-61.085-22.213-23.323-9.996-33.319-16.659-3.332-3.332-3.332-8.885-1.111-5.553-1.111-12.217t5.553-21.102q5.553-15.549 12.217-34.43l57.753 11.106q28.876 4.443 56.642 9.996z" />
<glyph unicode="&#xe916;" d="M874.065 85.935q-69.97-68.859-166.594-108.842-97.735-41.093-195.471-41.093t-195.471 41.093q-97.735 39.983-166.594 108.842-68.859 69.97-109.952 166.594-39.983 97.735-39.983 195.471t39.983 195.471q41.093 97.735 109.952 166.594t166.594 109.952q97.735 39.983 195.471 39.983t195.471-39.983q96.625-41.093 166.594-109.952 68.859-68.859 108.842-166.594 41.093-97.735 41.093-195.471t-41.093-195.471q-39.983-96.625-108.842-166.594z" />
<glyph unicode="&#xe917;" d="M600.85 396.911q54.421 57.753 81.076 109.952 25.544 52.2 25.544 103.289 0 86.629-51.089 131.054t-139.939 44.425q-64.416 0-112.174-22.213t-67.748-37.761q-8.885-9.996-9.996-18.881-1.111-7.774 14.438-24.434 6.664-12.217 13.328-18.881 5.553-6.664 12.217-6.664 9.996 0 28.876 9.996 17.77 9.996 43.315 15.549 13.328 3.332 25.544 6.664 13.328 2.221 26.655 2.221 41.093 0 63.306-22.213 21.102-21.102 21.102-63.306 0-41.093-24.434-81.076-25.544-39.983-86.629-111.063-34.43-41.093-59.974-69.97-25.544-29.987-42.204-48.868-34.43-54.421-43.315-71.080-7.774-17.77-7.774-26.655 0-16.659 5.553-32.208t12.217-27.766h348.738q26.655 0 37.761 7.774 11.106 6.664 14.438 26.655 2.221 15.549 2.221 32.208t-2.221 35.54q-9.996 0-28.876-2.221t-44.425-2.221h-208.798q38.872 41.093 76.633 81.076 38.872 41.093 76.633 81.076z" />
<glyph unicode="&#xe918;" d="M874.065 85.935q-69.97-68.859-166.594-108.842-97.735-41.093-195.471-41.093t-195.471 41.093q-97.735 39.983-166.594 108.842-68.859 69.97-109.952 166.594-39.983 97.735-39.983 195.471t39.983 195.471q41.093 97.735 109.952 166.594t166.594 109.952q97.735 39.983 195.471 39.983t195.471-39.983q96.625-41.093 166.594-109.952 68.859-68.859 108.842-166.594 41.093-97.735 41.093-195.471t-41.093-195.471q-39.983-96.625-108.842-166.594z" />
<glyph unicode="&#xe919;" d="M405.38 503.531q4.443-24.434 12.217-72.191 93.293 8.885 132.165-13.328t38.872-76.633-33.319-82.187q-34.43-28.876-94.403-28.876-35.54 0-68.859 6.664-34.43 5.553-72.191 15.549-6.664-19.991-9.996-34.43-3.332-15.549-3.332-21.102 0-9.996 2.221-14.438 1.111-5.553 11.106-11.106 15.549-13.328 61.085-25.544 44.425-13.328 105.51-13.328 114.395 0 178.811 49.978 64.416 48.868 64.416 142.161 0 76.633-45.536 118.837-45.536 43.315-125.501 43.315 66.638 18.881 105.51 58.863 39.983 38.872 39.983 89.961 0 76.633-47.757 113.284t-127.722 36.651q-66.638 0-121.059-19.991t-71.080-35.54q-8.885-9.996-11.106-18.881-1.111-8.885 11.106-28.876 9.996-15.549 15.549-19.991t14.438-1.111q6.664 0 24.434 7.774 18.881 7.774 44.425 13.328 12.217 3.332 25.544 6.664 12.217 2.221 25.544 2.221 37.761 0 57.753-17.77 18.881-18.881 18.881-49.978 0-42.204-38.872-73.302-38.872-29.987-118.837-46.646z" />
<glyph unicode="&#xe91a;" d="M874.065 85.935q-69.97-68.859-166.594-108.842-97.735-41.093-195.471-41.093t-195.471 41.093q-97.735 39.983-166.594 108.842-68.859 69.97-109.952 166.594-39.983 97.735-39.983 195.471t39.983 195.471q41.093 97.735 109.952 166.594t166.594 109.952q97.735 39.983 195.471 39.983t195.471-39.983q96.625-41.093 166.594-109.952 68.859-68.859 108.842-166.594 41.093-97.735 41.093-195.471t-41.093-195.471q-39.983-96.625-108.842-166.594z" />
<glyph unicode="&#xe91b;" d="M239.685 438.237l0.036 21.548c0.018 7.153-5.346 13.203-12.517 14.089l-125.695 15.66c-8.525 1.066-16.057-5.509-16.075-14.034l-0.108-50.339c-0.018-8.435 7.333-15.010 15.786-14.125l125.749 13.131c7.279 0.759 12.806 6.828 12.824 14.070z" />
<glyph unicode="&#xe91c;" d="M366.121 679.693l18.676 10.729c6.213 3.558 8.76 11.235 5.942 17.882l-49.292 116.682c-3.342 7.911-12.806 11.144-20.194 6.9l-43.638-25.088c-7.315-4.19-9.338-13.854-4.335-20.735l74.254-102.34c4.299-5.906 12.3-7.64 18.586-4.028z" />
<glyph unicode="&#xe91d;" d="M784.315 460.689l-0.036-21.548c-0.018-7.153 5.346-13.203 12.517-14.089l125.695-15.66c8.525-1.066 16.057 5.509 16.075 14.034l0.108 50.339c0.018 8.435-7.333 15.010-15.786 14.125l-125.749-13.131c-7.279-0.759-12.806-6.828-12.824-14.070z" />
<glyph unicode="&#xe91e;" d="M657.879 219.233l-18.676-10.729c-6.213-3.558-8.76-11.235-5.942-17.882l49.292-116.682c3.342-7.911 12.806-11.144 20.194-6.9l43.638 25.088c7.315 4.19 9.338 13.854 4.335 20.735l-74.254 102.34c-4.281 5.888-12.3 7.64-18.586 4.028z" />
<glyph unicode="&#xe91f;" d="M272.577 567.003l20.085 34.968c6.665 11.614 5.708 25.197-2.222 31.645l-139.476 113.376c-9.465 7.694-24.817 2.276-32.747-11.56l-46.926-81.695c-7.857-13.673-4.967-29.514 6.213-33.993l166.317-66.631c9.591-3.865 22 2.131 28.755 13.89z" />
<glyph unicode="&#xe920;" d="M751.423 331.923l-20.085-34.968c-6.665-11.614-5.708-25.197 2.222-31.645l139.476-113.376c9.465-7.694 24.817-2.276 32.747 11.56l46.926 81.695c7.857 13.673 4.967 29.514-6.213 33.993l-166.317 66.631c-9.591 3.865-22-2.131-28.755-13.89z" />
<glyph unicode="&#xe921;" d="M481.267 142.65l-219.456 126.815c-21.946 12.68-30.272 44.325-17.484 66.451l219.709 380.209c12.788 22.126 44.361 30.724 66.306 18.026l219.456-126.815c21.946-12.68 30.272-44.325 17.484-66.451l-219.709-380.209c-15.118-26.154-40.369-33.018-66.306-18.026z" />
<glyph unicode="&#xe922;" d="M500.7 768.632c-24.542-1.793-47.76-15.433-61.045-38.417l-219.71-380.209c-21.259-36.783-9.069-83.634 27.778-104.923l219.456-126.816c18.008-10.407 39.118-14.527 58.684-9.207 19.568 5.319 35.666 19.491 46.090 37.525l219.71 380.213c21.257 36.782 9.068 83.634-27.778 104.923v-0.004l-219.449 126.813c-13.816 7.992-29.015 11.179-43.737 10.104zM509.53 711.338c2.601-0.049 4.949-0.544 6.71-1.563l0.007-0.004 219.463-126.82c7.044-4.070 11.507-20.505 7.19-27.975l-219.706-380.213c-4.693-8.118-8.782-10.453-12.104-11.356s-7.801-0.96-15.73 3.623h-0.004l-219.456 126.816c-7.044 4.070-11.51 20.505-7.193 27.975v0.004l219.71 380.209c3.242 5.606 13.312 9.45 21.114 9.303z" />
<glyph unicode="&#xe923;" glyph-name="sleep" d="M626.867 238.524c-165.558 0-300.699 135.141-300.699 300.699 0 158.803 125.008 290.567 283.811 300.699-30.399 6.755-64.193 13.511-97.987 13.511-222.978 0-405.424-182.446-405.424-405.424s182.446-405.442 405.442-405.442c222.996 0 405.442 182.446 405.442 405.442 0 3.378 0 3.378 0 6.755-40.568-128.386-155.425-216.241-290.585-216.241z" />
<glyph unicode="&#xe924;" glyph-name="tap" d="M851.678 504.809h-551.649c-32.875 0-61.776-28.901-61.776-61.776v-321.163c0-32.875 28.72-61.776 61.776-61.776h551.649c32.875 0 61.776 28.901 61.776 61.776v321.163c0 32.875-28.901 61.776-61.776 61.776zM843.188 159.802c0-16.437-14.089-29.624-31.611-29.624h-460.791c-20.953-3.251-35.043 13.186-35.043 29.624v249.633c0 16.437 14.089 29.624 31.611 29.624h464.223c17.521 0 31.611-13.186 31.611-29.624v-249.633zM686.942 665.39v0c0-8.309-4.155-8.309-8.309-8.309h-57.621c-4.155 0-8.309-8.309-4.155-8.309l111.088-107.114c4.155-4.155 8.309-4.155 12.283 0l111.088 107.114c4.155 4.155 0 8.309-4.155 8.309h-61.415c-4.155 0-8.309 4.155-8.309 8.309v0c0 119.397-102.96 148.298-168.89 156.427-4.155 0-8.309-8.309-4.155-12.283 45.519-28.901 82.549-78.213 82.549-144.144zM238.253 443.033c0 32.875 28.901 61.776 61.776 61.776h255.232v338.323c0 32.875-28.901 61.776-61.776 61.776h-321.163c-32.875 0-61.776-28.901-61.776-61.776v-551.649c0-32.875 28.901-61.776 61.776-61.776h65.93v213.326z" />
<glyph unicode="&#xe925;" d="M409.822 366.924q62.195 119.948 187.696 358.733 5.553 8.885 4.443 16.659l-4.443 13.328q-3.332 5.553-15.549 14.438t-32.208 15.549q-18.881 5.553-32.208 8.885-12.217 3.332-18.881 3.332-6.664-3.332-12.217-6.664-5.553-4.443-8.885-9.996-76.633-163.262-121.059-259.887t-53.31-128.833q-3.332-15.549-6.664-28.876-2.221-13.328-2.221-26.655 0-15.549 5.553-33.319t15.549-29.987h217.683v-76.633q0-28.876 15.549-44.425t44.425-15.549h51.089q19.991 1.111 29.987 4.443-3.332 15.549-4.443 35.54v92.182q34.43 0 54.421 3.332t26.655 8.885q3.332 3.332 5.553 9.996t2.221 15.549v26.655q-1.111 16.659-3.332 42.204-23.323-3.332-45.536-3.332-22.213-1.111-44.425-1.111v115.505q0 25.544-27.766 35.54-28.876 11.106-69.97-14.438-9.996-6.664-14.438-14.438-4.443-6.664-7.774-19.991-2.221-35.54-7.774-106.62h-64.416z" />
<glyph unicode="&#xe926;" d="M874.065 85.935q-69.97-68.859-166.594-108.842-97.735-41.093-195.471-41.093t-195.471 41.093q-97.735 39.983-166.594 108.842-68.859 69.97-109.952 166.594-39.983 97.735-39.983 195.471t39.983 195.471q41.093 97.735 109.952 166.594t166.594 109.952q97.735 39.983 195.471 39.983t195.471-39.983q96.625-41.093 166.594-109.952 68.859-68.859 108.842-166.594 41.093-97.735 41.093-195.471t-41.093-195.471q-39.983-96.625-108.842-166.594z" />
<glyph unicode="&#xe927;" d="M354.291 443.557q124.39 19.991 181.033-2.221 57.753-22.213 57.753-95.514 0-54.421-35.54-84.408-36.651-31.098-96.625-31.098-28.876 0-63.306 6.664-35.54 5.553-73.302 15.549-6.664-19.991-9.996-33.319t-3.332-22.213q0-9.996 3.332-16.659 2.221-6.664 5.553-8.885 12.217-13.328 58.863-25.544 45.536-13.328 103.289-13.328 105.51 0 174.369 58.863t68.859 167.705q0 54.421-18.881 92.182-17.77 38.872-49.978 61.085-34.43 18.881-77.744 27.766-43.315 7.774-101.067 2.221 3.332 47.757 8.885 144.382 41.093-3.332 79.965-3.332 37.761-1.111 73.302-1.111 28.876 0 42.204 11.106 13.328 12.217 13.328 39.983 0 9.996-1.111 23.323 0 12.217-3.332 28.876h-289.874q-28.876 0-39.983-12.217t-11.106-43.315v-168.816q1.111-72.191 4.443-117.727z" />
<glyph unicode="&#xe928;" d="M874.065 85.935q-69.97-68.859-166.594-108.842-97.735-41.093-195.471-41.093t-195.471 41.093q-97.735 39.983-166.594 108.842-68.859 69.97-109.952 166.594-39.983 97.735-39.983 195.471t39.983 195.471q41.093 97.735 109.952 166.594t166.594 109.952q97.735 39.983 195.471 39.983t195.471-39.983q96.625-41.093 166.594-109.952 68.859-68.859 108.842-166.594 41.093-97.735 41.093-195.471t-41.093-195.471q-39.983-96.625-108.842-166.594z" />
<glyph unicode="&#xe929;" d="M584.191 785.631c-62.195 0-113.654-15.179-154.377-45.536-41.463-29.617-74.042-69.97-97.735-121.059-14.808-34.059-25.544-69.97-32.208-107.731-6.664-37.021-9.996-78.114-9.996-123.28 0-89.591 18.881-154.377 56.642-194.36 37.761-40.723 92.923-61.085 165.484-61.085 70.34 0 124.761 17.77 163.262 53.31s57.753 91.812 57.753 168.816c0 39.983-7.404 74.042-22.213 102.178s-37.021 50.719-66.638 67.748c-17.030 11.106-34.059 18.14-51.089 21.102s-34.059 4.443-51.089 4.443c-30.357 0-57.383-5.553-81.076-16.659-24.434-11.847-42.944-27.396-55.531-46.646h-4.443c1.481 5.183 4.443 13.698 8.885 25.544 3.702 22.953 9.996 44.425 18.881 64.416 8.885 19.251 20.732 37.391 35.54 54.421 13.328 17.030 31.098 30.727 53.31 41.093 21.472 9.625 45.166 14.438 71.080 14.438h37.761c12.587-0.74 24.064-2.221 34.43-4.443 11.106-1.481 19.621-2.591 25.544-3.332h8.885c4.443 0 7.774 0.74 9.996 2.221s4.443 3.332 6.664 5.553c0 2.221 1.111 5.553 3.332 9.996 1.481 5.183 3.332 11.847 5.553 19.991 2.221 6.664 3.332 12.587 3.332 17.77 0.74 5.923 1.111 9.996 1.111 12.217s-1.111 4.443-3.332 6.664c-1.481 2.221-3.332 4.443-5.553 6.664-8.145 5.923-23.693 11.476-46.646 16.659-22.953 5.923-51.459 8.885-85.518 8.885zM516.443 456.885c27.396 0 48.497-9.625 63.306-28.876 14.068-19.251 21.102-48.127 21.102-86.629 0-36.281-7.404-63.676-22.213-82.187-14.808-19.251-37.021-28.876-66.638-28.876-25.915 0-46.646 9.255-62.195 27.766-15.549 17.77-23.323 47.017-23.323 87.74 0 34.059 8.145 61.085 24.434 81.076 15.549 19.991 37.391 29.987 65.527 29.987z" />
<glyph unicode="&#xe92a;" d="M874.065 85.935q-69.97-68.859-166.594-108.842-97.735-41.093-195.471-41.093t-195.471 41.093q-97.735 39.983-166.594 108.842-68.859 69.97-109.952 166.594-39.983 97.735-39.983 195.471t39.983 195.471q41.093 97.735 109.952 166.594t166.594 109.952q97.735 39.983 195.471 39.983t195.471-39.983q96.625-41.093 166.594-109.952 68.859-68.859 108.842-166.594 41.093-97.735 41.093-195.471t-41.093-195.471q-39.983-96.625-108.842-166.594z" />
<glyph unicode="&#xe92b;" d="M711.913 653.466q6.664 22.213 12.217 39.983 5.553 18.881 5.553 32.208 0 18.881-4.443 34.43-3.332 15.549-13.328 25.544h-366.508q-18.881 0-24.434-12.217-5.553-11.106-5.553-39.983 0-27.766 5.553-39.983 5.553-11.106 24.434-11.106 85.518 4.443 255.445 13.328-56.642-112.174-101.067-193.249-43.315-81.076-68.859-135.497-17.77-38.872-29.987-66.638-13.328-26.655-21.102-45.536-14.438-34.43-17.77-45.536-4.443-11.106-4.443-16.659 0-13.328 6.664-22.213 6.664-9.996 19.991-16.659 12.217-6.664 35.54-8.885 22.213-3.332 57.753-3.332 0 5.553 3.332 13.328t9.996 19.991q2.221 9.996 11.106 27.766t17.77 36.651q6.664 13.328 13.328 25.544 6.664 13.328 12.217 25.544 13.328 25.544 34.43 71.080 19.991 46.646 43.315 91.072 34.43 76.633 56.642 127.722 23.323 49.978 32.208 73.302z" />
<glyph unicode="&#xe92c;" d="M874.065 85.935q-69.97-68.859-166.594-108.842-97.735-41.093-195.471-41.093t-195.471 41.093q-97.735 39.983-166.594 108.842-68.859 69.97-109.952 166.594-39.983 97.735-39.983 195.471t39.983 195.471q41.093 97.735 109.952 166.594t166.594 109.952q97.735 39.983 195.471 39.983t195.471-39.983q96.625-41.093 166.594-109.952 68.859-68.859 108.842-166.594 41.093-97.735 41.093-195.471t-41.093-195.471q-39.983-96.625-108.842-166.594z" />
<glyph unicode="&#xe92d;" d="M531.297 781.419c-3.795-0.014-7.636-0.091-11.523-0.23-61.455 0-111.433-14.808-149.935-44.425-39.242-29.617-58.863-68.859-58.863-117.727 0-19.251 3.702-38.132 11.106-56.642 7.404-17.77 16.659-32.949 27.766-45.536 10.366-13.328 21.842-24.434 34.43-33.319s25.174-16.289 37.761-22.213c-42.944-21.472-74.782-46.276-95.514-74.412-21.472-28.876-32.208-62.565-32.208-101.067 0-51.089 19.621-89.961 58.863-116.616 38.502-27.396 94.033-41.093 166.594-41.093s128.463 14.808 167.705 44.425c39.242 29.617 58.863 73.302 58.863 131.054 0 36.281-11.106 68.859-33.319 97.735-22.213 29.617-52.2 55.161-89.961 76.633 17.030 6.664 33.319 15.919 48.868 27.766 16.289 11.106 29.617 27.396 39.983 48.868 6.664 11.106 11.106 22.583 13.328 34.43 2.962 11.847 4.443 23.323 4.443 34.43 0 48.868-19.621 87.74-58.863 116.616-36.095 27.766-82.603 41.54-139.523 41.323zM519.774 686.785c23.693 0 43.315-6.664 58.863-19.991 14.808-13.328 22.213-30.727 22.213-52.2 0-19.251-5.923-37.391-17.77-54.421-12.587-16.289-30.727-30.727-54.421-43.315-29.617 12.587-51.829 25.915-66.638 39.983-15.549 14.068-23.323 31.838-23.323 53.31 0 23.693 7.404 42.574 22.213 56.642 14.068 13.328 33.689 19.991 58.863 19.991zM512 413.57c31.838-14.808 56.272-30.727 73.302-47.757 17.030-17.77 26.655-37.391 28.876-58.863 0-25.174-8.885-44.795-26.655-58.863-17.030-14.068-39.612-21.102-67.748-21.102-27.396 0-49.978 6.664-67.748 19.991-17.030 14.068-25.544 32.949-25.544 56.642 0 22.953 6.664 44.055 19.991 63.306 13.328 18.51 35.17 34.059 65.527 46.646z" />
<glyph unicode="&#xe92e;" d="M874.065 85.935q-69.97-68.859-166.594-108.842-97.735-41.093-195.471-41.093t-195.471 41.093q-97.735 39.983-166.594 108.842-68.859 69.97-109.952 166.594-39.983 97.735-39.983 195.471t39.983 195.471q41.093 97.735 109.952 166.594t166.594 109.952q97.735 39.983 195.471 39.983t195.471-39.983q96.625-41.093 166.594-109.952 68.859-68.859 108.842-166.594 41.093-97.735 41.093-195.471t-41.093-195.471q-39.983-96.625-108.842-166.594z" />
<glyph unicode="&#xe92f;" d="M516.443 785.631c-70.34 0-125.131-17.77-164.373-53.31-38.502-35.54-57.753-91.812-57.753-168.816 0-40.723 7.404-75.523 22.213-104.399 14.808-29.617 37.391-51.829 67.748-66.638 17.030-10.366 34.8-17.030 53.31-19.991 17.77-3.702 35.54-5.553 53.31-5.553 27.396 0 53.68 5.923 78.855 17.77 24.434 11.847 42.204 27.396 53.31 46.646h3.332c-1.481-5.923-4.072-14.438-7.774-25.544-2.221-23.693-7.774-45.166-16.659-64.416-8.145-19.991-19.621-38.502-34.43-55.531-15.549-17.030-34.43-30.357-56.642-39.983-22.213-10.366-46.276-15.549-72.191-15.549-20.732 0-41.834 1.111-63.306 3.332-20.732 2.221-40.723 5.553-59.974 9.996-4.443-12.587-7.774-23.323-9.996-32.208-1.481-8.885-2.221-16.659-2.221-23.323s0.37-11.847 1.111-15.549c0-4.443 2.221-7.774 6.664-9.996 6.664-8.885 22.953-15.919 48.868-21.102 25.915-5.923 53.68-8.885 83.297-8.885 57.753 0 108.471 13.698 152.156 41.093 42.944 28.136 76.263 69.97 99.957 125.501 14.808 34.059 25.544 69.599 32.208 106.62 6.664 37.761 9.996 78.855 9.996 123.28 0 89.591-18.881 154.748-56.642 195.471s-92.552 61.085-164.373 61.085zM516.443 686.785c25.174 0 45.536-8.885 61.085-26.655 15.549-18.51 23.323-47.757 23.323-87.74 0-34.8-7.774-61.825-23.323-81.076-16.289-19.991-38.132-29.987-65.527-29.987-28.136 0-49.238 9.996-63.306 29.987-14.808 19.991-22.213 48.127-22.213 84.408s7.404 64.046 22.213 83.297c14.808 18.51 37.391 27.766 67.748 27.766z" />
<glyph unicode="&#xe930;" d="M874.065 85.935q-69.97-68.859-166.594-108.842-97.735-41.093-195.471-41.093t-195.471 41.093q-97.735 39.983-166.594 108.842-68.859 69.97-109.952 166.594-39.983 97.735-39.983 195.471t39.983 195.471q41.093 97.735 109.952 166.594t166.594 109.952q97.735 39.983 195.471 39.983t195.471-39.983q96.625-41.093 166.594-109.952 68.859-68.859 108.842-166.594 41.093-97.735 41.093-195.471t-41.093-195.471q-39.983-96.625-108.842-166.594z" />
<glyph unicode="&#xe931;" d="M763.002 137.024q-55.531 107.731-165.484 324.304 52.2 96.625 157.709 289.874h-157.709q-28.876-65.527-85.518-196.581-28.876 65.527-85.518 196.581h-162.152q55.531-97.735 166.594-294.317-59.974-105.51-179.922-315.419h162.152q33.319 72.191 98.846 217.683 31.098-74.412 93.293-222.126z" />
<glyph unicode="&#xe932;" d="M874.065 85.935q-69.97-68.859-166.594-108.842-97.735-41.093-195.471-41.093t-195.471 41.093q-97.735 39.983-166.594 108.842-68.859 69.97-109.952 166.594-39.983 97.735-39.983 195.471t39.983 195.471q41.093 97.735 109.952 166.594t166.594 109.952q97.735 39.983 195.471 39.983t195.471-39.983q96.625-41.093 166.594-109.952 68.859-68.859 108.842-166.594 41.093-97.735 41.093-195.471t-41.093-195.471q-39.983-96.625-108.842-166.594z" />
<glyph unicode="&#xe933;" d="M519.774 781.189c-80.706 0-141.42-27.025-182.143-81.076-39.983-53.31-59.974-134.386-59.974-243.228s19.991-189.918 59.974-243.228c40.723-54.051 101.437-81.076 182.143-81.076 79.225 0 139.569 26.285 181.033 78.855s62.195 134.386 62.195 245.449c0 108.842-19.991 189.918-59.974 243.228-40.723 54.051-101.808 81.076-183.254 81.076zM519.774 682.343c17.030 0 32.949-4.072 47.757-12.217 14.068-8.885 25.174-21.842 33.319-38.872 8.885-17.030 15.549-40.353 19.991-69.97 3.702-28.876 5.553-63.676 5.553-104.399s-1.851-75.893-5.553-105.51c-4.443-29.617-11.106-52.94-19.991-69.97-8.145-18.51-18.881-32.208-32.208-41.093s-29.617-13.328-48.868-13.328c-19.251 0-35.17 4.813-47.757 14.438-13.328 9.625-24.434 22.953-33.319 39.983-8.145 17.030-14.808 40.353-19.991 69.97s-7.034 64.787-5.553 105.51c0 40.723 2.221 75.523 6.664 104.399 4.443 29.617 10.736 52.94 18.881 69.97 8.885 17.030 20.362 29.987 34.43 38.872 14.068 8.145 29.617 12.217 46.646 12.217z" />
<glyph unicode="&#xe934;" glyph-name="spell" d="M379.686 657.986c-24.024-81.104-79.838-155.886-93.385-212.965-0.773-3.255-1.578-6.46-2.399-9.642-1.018 9.608-1.529 18.7-1.214 27.162 5.238 138.544 10.477 189.665-67.917 184.608 5.6-62.679-16.62-114.702-17.523-193.819-0.238-21.77-0.682-43.653-1.245-64.837-15.106 117.151-20.963 161.603-87.984 146.844 12.994-49.917 5.415-95.113 11.043-154.726-12.318 23.163-29.104 29.887-59.273 21.782 17.521-51.299 10.84-97.904 26.555-164.015 3.009-12.606 5.942-25.246 8.792-37.749-22.99-12.383-48.038-23.996-75.265-35.227-22.218-164.194 79.658-221.274 79.658-221.274s105.307 141.795 472.531 55.273c47.687 81.284-87.243 123.555-177.559 141.979-55.454 13.005-42.63 140.712-27.638 258.303 29.985 107.476 108.92 249.091 12.824 258.303zM549.481 368.432l-20.773 85.8 18.605 83.813 17.702-83.632zM462.055 450.619l85.981 20.773 83.813-18.424-83.813-17.883zM842.285 387.037l-45.519 189.663 40.823 184.967 39.197-184.786zM649.551 568.752l189.663 45.7 184.786-40.823-184.786-39.197zM737.699 94.414l-37.752 156.608 33.778 152.453 32.333-152.453zM578.563 244.338l156.427 37.752 152.634-33.778-152.453-32.333z" />
</font>
</defs>
</svg>
